HIERARCHY
ROOT Hips
{
	OFFSET -13.091600 -28.302996 44.698402
	CHANNELS 6 Xposition Yposition Zposition Zrotation Xrotation Yrotation
	JOINT Chest
	{
		OFFSET -0.673000 0.623899 5.369202
		CHANNELS 6 Xposition Yposition Zposition Zrotation Xrotation Yrotation
		JOINT Chest2
		{
			OFFSET 0.000000 0.000000 4.415001
			CHANNELS 6 Xposition Yposition Zposition Zrotation Xrotation Yrotation
			JOINT Neck
			{
				OFFSET 0.000000 0.000002 10.273300
				CHANNELS 6 Xposition Yposition Zposition Zrotation Xrotation Yrotation
				JOINT Head
				{
					OFFSET 0.000000 0.000000 2.173897
					CHANNELS 6 Xposition Yposition Zposition Zrotation Xrotation Yrotation
					End Site
					{
						OFFSET 0.000000 0.000000 9.961800
					}
				}
			}
			JOINT LeftCollar
			{
				OFFSET 2.359900 -0.565201 5.928101
				CHANNELS 6 Xposition Yposition Zposition Zrotation Xrotation Yrotation
				JOINT LeftShoulder
				{
					OFFSET 5.443700 0.000000 0.000000
					CHANNELS 6 Xposition Yposition Zposition Zrotation Xrotation Yrotation
					JOINT LeftElbow
					{
						OFFSET 0.000000 0.000000 -10.615799
						CHANNELS 6 Xposition Yposition Zposition Zrotation Xrotation Yrotation
						JOINT LeftWrist
						{
							OFFSET 0.000000 -0.000002 -13.110302
							CHANNELS 6 Xposition Yposition Zposition Zrotation Xrotation Yrotation
							End Site
							{
								OFFSET 0.000000 0.000000 -2.173901
							}
						}
					}
				}
			}
			JOINT RightCollar
			{
				OFFSET -2.636600 -1.718800 6.889698
				CHANNELS 6 Xposition Yposition Zposition Zrotation Xrotation Yrotation
				JOINT RightShoulder
				{
					OFFSET -4.139101 0.000000 0.000000
					CHANNELS 6 Xposition Yposition Zposition Zrotation Xrotation Yrotation
					JOINT RightElbow
					{
						OFFSET 0.000000 0.000000 -10.471802
						CHANNELS 6 Xposition Yposition Zposition Zrotation Xrotation Yrotation
						JOINT RightWrist
						{
							OFFSET 0.000000 0.000000 -12.281898
							CHANNELS 6 Xposition Yposition Zposition Zrotation Xrotation Yrotation
							End Site
							{
								OFFSET 0.000000 -0.000002 -2.173901
							}
						}
					}
				}
			}
		}
	}
	JOINT LeftHip
	{
		OFFSET 2.273400 0.176701 -2.518002
		CHANNELS 6 Xposition Yposition Zposition Zrotation Xrotation Yrotation
		JOINT LeftKnee
		{
			OFFSET 0.000000 -0.000002 -20.456402
			CHANNELS 6 Xposition Yposition Zposition Zrotation Xrotation Yrotation
			JOINT LeftAnkle
			{
				OFFSET 0.000000 -0.000002 -16.635300
				CHANNELS 6 Xposition Yposition Zposition Zrotation Xrotation Yrotation
				End Site
				{
					OFFSET 0.000000 -8.812399 0.000001
				}
			}
		}
	}
	JOINT RightHip
	{
		OFFSET -1.914800 0.018101 -2.699299
		CHANNELS 6 Xposition Yposition Zposition Zrotation Xrotation Yrotation
		JOINT RightKnee
		{
			OFFSET 0.000000 -0.000002 -20.148901
			CHANNELS 6 Xposition Yposition Zposition Zrotation Xrotation Yrotation
			JOINT RightAnkle
			{
				OFFSET 0.000000 -0.000002 -16.838301
				CHANNELS 6 Xposition Yposition Zposition Zrotation Xrotation Yrotation
				End Site
				{
					OFFSET 0.000000 -8.328398 0.000001
				}
			}
		}
	}
}
MOTION
Frames: 6
Frame Time: 0.041667
-58.035599 32.088409 35.436802 1130.412919 22.067969 -7.240635 -0.673003 0.623901 5.369206 13.510199 23.208001 -13.411773 0.000001 -0.000004 4.415004 -3.369817 -4.945294 -0.693893 0.000000 0.000010 10.273300 -29.671018 27.602509 22.800920 0.000002 -0.000014 2.173907 -0.355475 1.504753 -2.291928 2.359900 -0.565193 5.928099 18.006334 -7.575734 -31.652299 5.443691 -0.000005 -0.000008 -31.717486 -7.812909 -114.592543 -0.000001 -0.000007 -10.615795 542.188175 -184.900352 180.443776 0.000008 -0.000004 -13.110308 -150.074337 -182.597949 189.038586 -2.636602 -1.718791 6.889703 181.289463 -179.240939 161.386073 -4.139091 -0.000005 -0.000005 -6.033670 -344.967775 71.074689 -0.000001 -0.000003 -10.471793 -35.371074 -0.812093 -359.888077 0.000000 0.000007 -12.281894 314.515485 26.000787 41.193581 2.273396 0.176708 -2.518008 -102.400546 -133.485051 -109.782594 -0.000002 -0.000006 -20.456400 87.110716 136.728434 -102.939967 0.000002 -0.000009 -16.635296 56.808401 -0.639476 32.315268 -1.914798 0.018104 -2.699299 107.856822 212.998862 143.325550 0.000000 -0.000002 -20.148899 151.511860 56.904505 -112.184068 0.000001 -0.000000 -16.838291 -52.421384 -6.452931 -7.764426
-58.269196 32.057014 35.197403 1132.410722 21.359752 -7.319664 -0.673004 0.623896 5.369206 16.385258 23.161028 -14.600779 0.000002 0.000001 4.415008 -4.274432 -4.921583 -0.699165 -0.000003 0.000007 10.273302 -31.022064 27.908361 23.868448 -0.000002 -0.000007 2.173889 -0.788283 1.199374 -2.042567 2.359897 -0.565200 5.928103 18.362415 -7.577687 -30.262734 5.443698 -0.000002 -0.000002 -33.522159 -10.348894 -118.150648 -0.000004 -0.000013 -10.615793 542.268280 -184.479489 180.274456 0.000002 0.000005 -13.110293 -149.362017 -182.437973 188.345185 -2.636602 -1.718799 6.889707 183.727403 -179.206132 159.277156 -4.139104 -0.000002 0.000002 -5.087370 -344.044306 69.831888 -0.000006 -0.000009 -10.471792 -36.056876 -0.723025 -359.576948 -0.000006 0.000003 -12.281887 313.462653 25.718203 40.690582 2.273398 0.176695 -2.518010 -102.817146 -133.522890 -109.270698 -0.000001 -0.000004 -20.456400 85.327914 137.281475 -101.445753 -0.000007 -0.000007 -16.635300 57.179226 -0.621960 32.649069 -1.914803 0.018106 -2.699303 105.950762 212.525393 143.060621 0.000005 -0.000004 -20.148903 152.102138 54.486441 -113.534560 0.000002 -0.000002 -16.838291 -53.590043 -6.479988 -9.139678
-58.459900 31.980120 35.015305 1134.284816 20.540530 -7.338025 -0.673007 0.623899 5.369206 19.484312 23.055710 -15.762203 0.000002 0.000007 4.415008 -5.319309 -4.892569 -0.705213 -0.000004 -0.000001 10.273306 -32.629917 28.234738 24.927286 -0.000002 0.000003 2.173901 -0.528912 1.156240 -1.992319 2.359895 -0.565205 5.928104 18.646777 -7.399033 -29.351379 5.443700 -0.000003 0.000002 -35.285853 -13.207408 -121.293942 -0.000000 -0.000009 -10.615794 543.024300 -183.980066 180.015086 0.000000 -0.000008 -13.110297 -149.995162 -182.196061 187.475306 -2.636603 -1.718799 6.889705 186.497687 -180.951587 156.854611 -4.139091 -0.000002 -0.000006 -3.490203 -345.188717 69.076503 -0.000009 0.000000 -10.471790 -36.717383 -0.664024 -359.302784 0.000001 -0.000005 -12.281898 312.763979 25.434789 39.919710 2.273396 0.176705 -2.518005 -103.730725 -133.376027 -109.262106 -0.000004 -0.000001 -20.456390 84.186644 137.401631 -100.325889 -0.000005 -0.000009 -16.635296 57.333154 -0.474317 32.847585 -1.914800 0.018102 -2.699300 104.318859 211.845339 143.214437 -0.000002 -0.000006 -20.148897 152.637502 53.183958 -114.615055 -0.000002 -0.000000 -16.838299 -54.105077 -6.484196 -9.828934
-58.610405 31.854704 34.888203 1136.047333 19.622761 -7.319946 -0.673002 0.623901 5.369207 22.420075 23.023803 -16.696344 0.000002 -0.000002 4.415002 -6.195497 -4.914788 -0.709618 -0.000003 -0.000003 10.273304 -34.224486 28.644371 25.671708 -0.000006 0.000002 2.173902 0.096145 1.489942 -2.015718 2.359900 -0.565200 5.928096 18.837131 -7.043974 -28.536098 5.443699 -0.000001 -0.000009 -36.776761 -15.919127 -124.328567 -0.000003 -0.000003 -10.615793 544.933693 -183.345049 179.634863 0.000002 -0.000010 -13.110298 -152.147805 -181.794337 187.288363 -2.636602 -1.718803 6.889701 189.572078 -182.934691 154.071227 -4.139093 0.000002 -0.000000 -1.581643 -346.348866 69.023310 -0.000001 -0.000001 -10.471803 -37.730617 -0.763849 -359.051625 0.000000 0.000002 -12.281899 311.988889 25.225113 39.127811 2.273393 0.176710 -2.518003 -105.007984 -133.147749 -109.659268 0.000001 -0.000002 -20.456398 83.481728 137.045915 -99.452513 -0.000005 -0.000002 -16.635300 57.257565 -0.206558 32.912236 -1.914794 0.018111 -2.699293 102.954624 210.947428 143.751508 0.000002 -0.000005 -20.148901 152.945366 52.596606 -115.282364 -0.000004 -0.000000 -16.838303 -54.459024 -6.513154 -10.163032
-58.723900 31.680922 34.817806 1137.674885 18.692913 -7.227021 -0.673002 0.623901 5.369207 25.245569 22.925496 -17.470422 -0.000002 0.000010 4.414997 -6.942612 -4.880236 -0.687358 -0.000009 -0.000010 10.273298 -35.812297 29.092562 26.206375 -0.000002 -0.000000 2.173897 1.102448 2.078201 -2.064075 2.359897 -0.565206 5.928100 21.172722 -4.456071 -27.555739 5.443699 -0.000002 0.000001 -39.612795 -20.772279 -129.160694 -0.000001 0.000000 -10.615789 548.654015 -182.610257 179.201037 0.000001 -0.000011 -13.110288 -156.304221 -181.309339 186.384429 -2.636601 -1.718809 6.889697 192.727243 -184.453452 151.331065 -4.139089 0.000000 -0.000003 0.644641 -346.925744 69.644584 -0.000004 0.000001 -10.471800 -39.005974 -0.780074 -358.943434 -0.000001 0.000007 -12.281909 310.776449 25.126068 38.803162 2.273396 0.176707 -2.517998 -106.519580 -132.789410 -110.336720 -0.000004 -0.000005 -20.456402 83.086485 136.284718 -98.754925 -0.000005 -0.000003 -16.635300 56.932553 0.143510 32.791096 -1.914801 0.018103 -2.699299 105.858909 211.897521 146.669392 0.000001 -0.000006 -20.148903 148.778022 52.866682 -115.300942 -0.000007 -0.000003 -16.838291 -54.736579 -6.552763 -10.345605
-58.801910 31.462507 34.806202 1139.215557 17.754293 -7.120079 -0.673004 0.623898 5.369211 27.755459 22.925021 -17.980347 0.000001 0.000005 4.414996 -7.477611 -4.883789 -0.685934 -0.000006 -0.000012 10.273306 -37.403028 29.564972 26.638979 -0.000001 0.000002 2.173907 2.833489 3.049457 -2.365490 2.359899 -0.565212 5.928100 21.882275 -3.362960 -26.680413 5.443698 -0.000009 0.000006 -41.132974 -23.723561 -132.421426 -0.000003 -0.000008 -10.615791 553.584810 -181.614498 178.722377 -0.000004 -0.000014 -13.110301 -161.590432 -180.749427 185.303401 -2.636605 -1.718812 6.889699 195.257760 -184.878140 148.958516 -4.139102 0.000003 -0.000001 3.140450 -346.535795 70.658922 -0.000004 -0.000012 -10.471796 -40.245431 -0.810832 -358.877646 0.000000 0.000001 -12.281900 309.376314 25.188727 38.634005 2.273396 0.176711 -2.518002 -108.187485 -132.434800 -111.201299 -0.000004 -0.000001 -20.456398 82.736083 135.280899 -98.116016 0.000002 -0.000006 -16.635296 56.426795 0.606614 32.487361 -1.914802 0.018105 -2.699293 106.673532 211.432536 148.578826 -0.000002 0.000003 -20.148903 146.811583 53.699579 -115.183381 -0.000001 0.000013 -16.838297 -54.946785 -6.613500 -10.409060
